/* XPM */
static char *_61ff8c782094e4684f50517d281f240qpc6wyIsLKHAcKFu[] = {
/* columns rows colors chars-per-pixel */
"16 16 50 1 ",
"  c None",
". c #006B00",
"X c #007300",
"o c #007B00",
"O c #087B08",
"+ c #107310",
"@ c #107B10",
"# c #187318",
"$ c #187B18",
"% c #217B21",
"& c #088408",
"* c #009400",
"= c #009C00",
"- c #108410",
"; c #188418",
": c #188C18",
"> c #08A508",
", c #08AD08",
"< c #10A510",
"1 c #10AD10",
"2 c #18A518",
"3 c #18AD18",
"4 c #218C21",
"5 c #219421",
"6 c #219C21",
"7 c #299429",
"8 c #299C29",
"9 c #319431",
"0 c #319C31",
"q c #399C39",
"w c #39A539",
"e c #429C42",
"r c #42A542",
"t c #4AA54A",
"y c #52A552",
"u c #52AD52",
"i c #5AAD5A",
"p c #63AD63",
"a c #63B563",
"s c #6BB56B",
"d c #73BD73",
"f c #7BB57B",
"g c #7BBD7B",
"h c #84B584",
"j c #8CBD8C",
"k c #8CC68C",
"l c #9CCE9C",
"z c #A5D6A5",
"x c #B5DEB5",
"c c white",
/* pixels */
" cccccccccccccc ",
"cxdaiyyttreq94jc",
"cdlkgdsapiutr9#c",
"cskgsapcxttrq9%c",
"cigdpiccce0099%c",
"cyssiccceee777%c",
"cyppccceeee777%c",
"cricccccccccc6%c",
"ceycccccccccc6;c",
"c0tycccttttt32-c",
"c7etyccctttt1<&c",
"c5qrtrcccttt1>Oc",
"c:7qqqwczttt,=oc",
"c-479978622<>*.c",
"ch+###$$@@OOoXfc",
" cccccccccccccc "
};
